<svg xmlns="http://www.w3.org/2000/svg" width="95" height="76" fill="none" viewBox="0 0 95 76"><path fill="#fff" d="M9.05308 76C6.60836 76 4.48834 75.1101 2.693 73.3303C0.897668 71.5506 0 69.4489 0 67.0254V9.08819C0 6.58894 0.897668 4.44943 2.693 2.66966C4.48834 0.889886 6.60836 0 9.05308 0H85.8323C88.3534 0 90.5117 0.889886 92.307 2.66966C94.1023 4.44943 95 6.58894 95 9.08819V67.0254C95 69.4489 94.1023 71.5506 92.307 73.3303C90.5117 75.1101 88.3534 76 85.8323 76H9.05308ZM85.8323 16.8132L49.9638 40.4424C49.5054 40.6697 49.0852 40.859 48.7033 41.0105C48.3213 41.1619 47.9011 41.2377 47.4427 41.2377C46.9843 41.2377 46.5641 41.1619 46.1822 41.0105C45.8002 40.859 45.38 40.6697 44.9216 40.4424L9.05308 16.8132V67.0254H85.8323V16.8132ZM47.4427 33.8535L85.3739 9.08819H9.62606L47.4427 33.8535ZM9.05308 16.8132V17.8356V12.3259V12.4963V9.08819V12.3827V12.2691V17.8356V16.8132V67.0254V16.8132Z"/></svg>