<svg xmlns="http://www.w3.org/2000/svg" width="101" height="101" fill="none" viewBox="0 0 101 101"><path fill="#fff" d="M67.4579 98.2226C66.9731 98.3943 66.4883 98.6064 65.9934 98.6973C64.0946 99.0407 62.8826 98.061 62.8624 96.1117C62.8422 92.506 62.8422 88.9003 62.9028 85.2946C62.9634 81.1435 62.8624 77.053 59.7112 73.6291C61.5898 73.2958 63.2563 73.0534 64.8925 72.6797C75.7197 70.1951 81.3353 63.3675 82.0524 52.0353C82.416 46.2682 81.3858 40.9758 77.5579 36.4308C77.2852 36.1076 77.265 35.3804 77.3963 34.9158C78.4164 31.1586 78.1235 27.4923 76.9317 23.8159C76.6388 22.8968 76.1439 22.614 75.245 22.6746C72.0635 22.8463 69.1547 23.9674 66.5893 25.6844C64.1148 27.3408 61.812 27.7044 58.8729 27.0378C52.3988 25.5733 45.8843 26.0076 39.4203 27.5024C38.6931 27.6741 37.7033 27.4418 37.0367 27.0479C34.0067 25.2703 30.9767 23.5432 27.472 22.8564C24.7652 22.3312 24.5329 22.4625 23.8158 25.0784C22.9169 28.371 22.826 31.6737 23.7451 34.9865C23.8764 35.4713 23.735 36.2389 23.4219 36.6025C16.2509 44.6017 18.8466 59.7113 23.6744 65.4986C27.4316 69.9931 32.421 72.0131 37.9558 73.0736C38.9254 73.2554 39.8849 73.3867 40.8545 73.5584C40.0263 75.7198 39.2789 77.7499 38.4406 79.7598C38.279 80.1436 37.7538 80.4668 37.3195 80.6385C31.8857 82.7494 27.2195 81.194 24.1087 76.2652C22.4422 73.6392 20.3111 71.6697 17.1397 71.1041C17.0387 71.0839 16.9377 71.0334 16.8468 71.0435C15.9883 71.2657 15.15 71.498 14.2915 71.7303C14.7763 72.3969 15.1096 73.2958 15.756 73.6998C18.4527 75.4067 20.2 77.8307 21.3615 80.6991C23.1795 85.1936 26.7145 87.2035 31.2999 87.5873C33.5421 87.7691 35.8045 87.6176 38.2487 87.6176C38.2487 90.4052 38.3497 93.5968 38.2083 96.7682C38.1376 98.4751 36.4206 99.1619 34.3602 98.4549C28.9062 96.5864 23.8461 93.9099 19.4728 90.1527C3.68648 76.5682 -2.39372 59.3881 2.84818 39.279C8.07998 19.2305 21.7049 6.93876 42.0665 3.08056C70.2556 -2.25224 96.9499 18.2811 99.7476 46.8843C101.959 69.4477 88.6881 90.5466 67.4579 98.2226ZM40.8848 73.4574C40.8646 73.4978 40.8545 73.5281 40.8444 73.5685C40.8949 73.5786 40.9454 73.5887 40.9959 73.5887C41.0363 73.5887 41.0666 73.6594 40.8848 73.4574ZM28.1386 82.3757C28.5729 82.6484 28.9971 82.9918 29.4718 83.1433C29.6435 83.2039 29.9667 82.7999 30.5323 82.3858C29.7445 82.0828 29.2799 81.8202 28.785 81.7495C28.6032 81.7192 28.3507 82.1535 28.1386 82.3757ZM32.1483 83.0625C32.2089 83.3554 32.7947 83.7291 33.1482 83.719C33.4815 83.7089 33.8047 83.2746 34.138 83.0221C33.835 82.7494 33.532 82.4767 32.6028 81.6384C32.4008 82.2141 32.0675 82.6888 32.1483 83.0625ZM37.0771 81.8707C36.663 81.9717 36.3095 82.3555 35.9358 82.6181C36.158 82.9009 36.3802 83.1534 36.7337 83.5978C37.2286 83.1534 37.5619 82.8403 37.8952 82.5373C37.6124 82.2949 37.2892 81.8202 37.0771 81.8707ZM24.8662 80.2143C25.0985 80.6486 25.452 81.0223 25.9368 81.6384C26.26 81.1132 26.6135 80.7092 26.5428 80.6284C26.2398 80.2244 25.8257 79.9012 25.4116 79.5982C25.3914 79.578 24.8157 80.1133 24.8662 80.2143Z"/></svg>