<svg xmlns="http://www.w3.org/2000/svg" width="92" height="93" fill="none" viewBox="0 0 92 93"><path stroke="#fff" stroke-width="8" d="M4 10.0554C4 6.71203 6.77909 4.00003 10.2074 4.00003H81.7925C85.2208 4.00003 88 6.71203 88 10.0554V82.4775C88 85.8221 85.2208 88.533 81.7925 88.533H10.2074C6.77909 88.533 4 85.8221 4 82.4775V10.0554V10.0554Z"/><path fill="#fff" fillRule="evenodd" d="M32.2415 70.7595V37.0974H21.4002V70.7595H32.2415ZM26.8208 32.5014C30.6014 32.5014 32.9545 29.9165 32.9545 26.6861C32.8841 23.3831 30.6014 20.8699 26.8925 20.8699C23.184 20.8699 20.7593 23.3831 20.7593 26.6861C20.7593 29.9165 23.1119 32.5014 26.7501 32.5014H26.8206H26.8208Z" clipRule="evenodd"/><path fill="#fff" fillRule="evenodd" d="M38.4977 70.7595H49.7568V52.0068C49.7568 51.0032 49.8299 50.0006 50.1272 49.2831C50.9412 47.2779 52.7938 45.2011 55.9041 45.2011C59.9782 45.2011 61.608 48.2805 61.608 52.7948V70.7595H72.8661V51.505C72.8661 41.1906 67.3115 36.3911 59.9039 36.3911C53.8299 36.3911 51.1634 39.7567 49.6819 42.0491H49.7571V37.1791H38.498C38.6458 40.3301 38.498 70.7595 38.498 70.7595H38.4977Z" clipRule="evenodd"/></svg>