<svg xmlns="http://www.w3.org/2000/svg" width="67" height="83" fill="none" viewBox="0 0 67 83"><path fill="#fff" d="M20.6 64.6H46.2C47.1333 64.6 47.9167 64.2833 48.55 63.65C49.1833 63.0167 49.5 62.2333 49.5 61.3C49.5 60.3667 49.1833 59.5833 48.55 58.95C47.9167 58.3167 47.1333 58 46.2 58H20.6C19.6667 58 18.8833 58.3167 18.25 58.95C17.6167 59.5833 17.3 60.3667 17.3 61.3C17.3 62.2333 17.6167 63.0167 18.25 63.65C18.8833 64.2833 19.6667 64.6 20.6 64.6ZM20.6 47.6H46.2C47.1333 47.6 47.9167 47.2833 48.55 46.65C49.1833 46.0167 49.5 45.2333 49.5 44.3C49.5 43.3667 49.1833 42.5833 48.55 41.95C47.9167 41.3167 47.1333 41 46.2 41H20.6C19.6667 41 18.8833 41.3167 18.25 41.95C17.6167 42.5833 17.3 43.3667 17.3 44.3C17.3 45.2333 17.6167 46.0167 18.25 46.65C18.8833 47.2833 19.6667 47.6 20.6 47.6ZM7.9 82.9C5.76667 82.9 3.91667 82.1167 2.35 80.55C0.783334 78.9833 0 77.1333 0 75V8C0 5.8 0.783334 3.91667 2.35 2.35C3.91667 0.783334 5.76667 0 7.9 0H40.8C41.8667 0 42.9 0.233333 43.9 0.7C44.9 1.16667 45.7667 1.76667 46.5 2.5L64.4 20.4C65.1333 21.1333 65.7333 22 66.2 23C66.6667 24 66.9 25.0333 66.9 26.1V75C66.9 77.1333 66.1167 78.9833 64.55 80.55C62.9833 82.1167 61.1 82.9 58.9 82.9H7.9ZM40 22.6V8H7.9V75H58.9V26.6H44C42.8667 26.6 41.9167 26.2167 41.15 25.45C40.3833 24.6833 40 23.7333 40 22.6ZM7.9 8V26.6V8V75V8Z"/></svg>